HIERARCHY
ROOT Hips
{
 OFFSET 0.000000 0.000000 0.000000
 CHANNELS 6 Xposition Yposition Zposition Yrotation Xrotation Zrotation
 JOINT Chest
 {
  OFFSET 0.000000 8.841881 -6.654894
  CHANNELS 3 Yrotation Xrotation Zrotation
  JOINT Chest2
  {
   OFFSET 0.000000 7.072353 0.028336
   CHANNELS 3 Yrotation Xrotation Zrotation
   JOINT Chest3
   {
    OFFSET 0.000000 10.125157 -0.014641
    CHANNELS 3 Yrotation Xrotation Zrotation
    JOINT Chest4
    {
     OFFSET 0.000000 10.441534 -0.016102
     CHANNELS 3 Yrotation Xrotation Zrotation
     JOINT Neck
     {
      OFFSET 0.000000 16.849355 0.013667
      CHANNELS 3 Yrotation Xrotation Zrotation
      JOINT Head
      {
       OFFSET 0.000000 10.107081 0.000000
       CHANNELS 3 Yrotation Xrotation Zrotation
       End Site
       {
        OFFSET 0.000000 15.162723 0.000000
       }
      }
     }
     JOINT RightCollar
     {
      OFFSET -2.775264 10.553866 0.006834
      CHANNELS 3 Yrotation Xrotation Zrotation
      JOINT RightShoulder
      {
       OFFSET -16.020521 0.000000 0.000000
       CHANNELS 3 Yrotation Xrotation Zrotation
       JOINT RightElbow
       {
        OFFSET -23.902096 0.000000 0.000000
        CHANNELS 3 Yrotation Xrotation Zrotation
        JOINT RightWrist
        {
         OFFSET -23.631001 0.000000 -0.000566
         CHANNELS 3 Yrotation Xrotation Zrotation
         End Site
         {
          OFFSET -18.828190 0.690323 0.103033
         }
        }
       }
      }
     }
     JOINT LeftCollar
     {
      OFFSET 2.775264 10.553866 0.006834
      CHANNELS 3 Yrotation Xrotation Zrotation
      JOINT LeftShoulder
      {
       OFFSET 16.020521 0.000000 0.000000
       CHANNELS 3 Yrotation Xrotation Zrotation
       JOINT LeftElbow
       {
        OFFSET 23.902096 0.000000 0.000000
        CHANNELS 3 Yrotation Xrotation Zrotation
        JOINT LeftWrist
        {
         OFFSET 23.631001 0.000000 -0.000566
         CHANNELS 3 Yrotation Xrotation Zrotation
         End Site
         {
          OFFSET 18.828190 0.690323 0.103033
         }
        }
       }
      }
     }
    }
   }
  }
 }
 JOINT RightHip
 {
  OFFSET -9.646452 0.046004 -0.007286
  CHANNELS 3 Yrotation Xrotation Zrotation
  JOINT RightKnee
  {
   OFFSET 0.000000 -48.923989 0.009793
   CHANNELS 3 Yrotation Xrotation Zrotation
   JOINT RightAnkle
   {
    OFFSET 0.000000 -37.831989 0.111451
    CHANNELS 3 Yrotation Xrotation Zrotation
    JOINT RightToe
    {
     OFFSET 0.000000 -8.084683 17.519885
     CHANNELS 3 Yrotation Xrotation Zrotation
     End Site
     {
      OFFSET 0.000000 -1.047441 5.170765
     }
    }
   }
  }
 }
 JOINT LeftHip
 {
  OFFSET 9.646452 0.044016 -0.006971
  CHANNELS 3 Yrotation Xrotation Zrotation
  JOINT LeftKnee
  {
   OFFSET 0.000000 -48.923989 0.009793
   CHANNELS 3 Yrotation Xrotation Zrotation
   JOINT LeftAnkle
   {
    OFFSET 0.000000 -37.831989 0.111451
    CHANNELS 3 Yrotation Xrotation Zrotation
    JOINT LeftToe
    {
     OFFSET 0.000000 -8.084683 17.519885
     CHANNELS 3 Yrotation Xrotation Zrotation
     End Site
     {
      OFFSET 0.000000 -1.047441 5.170765
     }
    }
   }
  }
 }
}
MOTION
Frames: 14
Frame Time: 0.004167
45.718023 88.657828 142.679953 12.178588 9.013067 0.508575 -1.123485 8.106214 -1.472124 -0.373860 -9.124299 -0.672589 -0.258323 2.354555 -0.523214 -0.096589 9.904890 -0.150311 -0.699552 -4.246026 0.320616 -1.322530 -7.882185 0.638921 2.452248 -5.106455 5.840873 -0.662470 -6.755519 71.393621 38.601394 -4.265774 12.736102 -3.876997 1.711556 -4.242206 -2.463076 -6.358474 -8.146057 3.409580 -7.001522 -70.009898 -17.062555 4.431200 -9.298487 -4.278140 6.490962 -1.128534 -6.111408 -22.469270 -3.773846 -7.237466 80.406813 -4.882710 -3.979029 -7.685171 -1.334978 -0.000000 -0.000000 0.000000 8.676083 -23.167868 -1.232282 -3.653158 48.205607 -2.879738 15.582441 -33.913243 -2.679607 0.000000 0.000000 0.000000
45.878685 88.558248 143.324754 12.318773 9.026962 0.514552 -1.215653 8.093437 -1.445231 -0.421157 -9.134441 -0.656778 -0.291054 2.349725 -0.518779 -0.105709 9.905666 -0.148880 -0.708454 -4.275775 0.303029 -1.338245 -7.937556 0.607007 2.485109 -5.040909 5.801047 -0.611072 -6.298451 71.533238 37.149646 -3.838985 12.339383 -4.141363 1.687458 -4.266181 -2.609087 -6.381522 -8.284387 3.468430 -8.003897 -69.961094 -18.053888 4.472057 -9.837738 -4.257753 6.464903 -1.129400 -6.457114 -23.392056 -3.785645 -6.628546 80.769865 -4.451621 -3.837080 -8.325041 -1.450303 -0.000000 0.000000 0.000000 8.970566 -22.759801 -1.326306 -4.252044 48.325852 -3.040718 15.637176 -34.511692 -2.590902 0.000000 -0.000000 0.000000
46.036895 88.478968 143.977509 12.454244 9.046496 0.518625 -1.306591 8.073899 -1.413765 -0.468398 -9.149759 -0.638846 -0.323738 2.342286 -0.512862 -0.114744 9.906662 -0.147016 -0.716203 -4.301200 0.284267 -1.351709 -7.984913 0.572799 2.509584 -4.978068 5.763994 -0.594628 -5.848297 71.672608 35.661066 -3.384362 11.970016 -4.409552 1.674815 -4.274447 -2.749524 -6.403035 -8.412472 3.511322 -8.964922 -69.913598 -19.076421 4.468232 -10.378246 -4.239714 6.437609 -1.132343 -6.783101 -24.305628 -3.787322 -6.013086 81.049706 -3.994415 -3.703559 -8.940080 -1.553166 -0.000000 -0.000000 -0.000000 9.244998 -22.320977 -1.399216 -4.806340 48.363663 -3.173121 15.662857 -35.047598 -2.523220 -0.000000 -0.000000 -0.000000
46.191702 88.421662 144.639994 12.583763 9.068455 0.524026 -1.397080 8.048468 -1.380350 -0.515663 -9.169585 -0.620030 -0.356429 2.332580 -0.506342 -0.123748 9.907851 -0.144968 -0.721971 -4.321638 0.265538 -1.361447 -8.023015 0.538485 2.525938 -4.919952 5.732476 -0.623888 -5.407130 71.809812 34.145970 -2.901174 11.636262 -4.679983 1.677672 -4.264574 -2.883243 -6.424045 -8.526323 3.522478 -9.868525 -69.865623 -20.121792 4.408522 -10.906993 -4.227892 6.407192 -1.136837 -7.081178 -25.200792 -3.782621 -5.434337 81.244101 -3.550248 -3.582530 -9.528272 -1.644853 -0.000000 0.000000 -0.000000 9.482714 -21.846657 -1.445543 -5.290273 48.312844 -3.270057 15.655063 -35.505500 -2.480495 -0.000000 -0.000000 -0.000000
46.342155 88.388002 145.313984 12.706091 9.089614 0.533972 -1.487903 8.018008 -1.347615 -0.563031 -9.193252 -0.601569 -0.389178 2.320945 -0.500101 -0.132776 9.909212 -0.142984 -0.724932 -4.336421 0.248047 -1.365998 -8.050613 0.506256 2.534449 -4.868580 5.709250 -0.709652 -4.977005 71.942742 32.615068 -2.387387 11.345837 -4.951047 1.700213 -4.234562 -3.009105 -6.445551 -8.621944 3.486108 -10.698571 -69.815033 -21.181814 4.283069 -11.409438 -4.226163 6.371858 -1.142227 -7.342756 -26.068423 -3.775674 -4.940119 81.350963 -3.163019 -3.478074 -10.087628 -1.726710 0.000000 -0.000000 0.000000 9.667254 -21.332128 -1.460142 -5.678741 48.167221 -3.325584 15.609358 -35.869988 -2.466789 0.000000 0.000000 0.000000
46.487305 88.379661 146.001258 12.819988 9.106734 0.551665 -1.579837 7.983379 -1.318194 -0.610580 -9.220095 -0.584704 -0.422035 2.307720 -0.495021 -0.141883 9.910720 -0.141317 -0.724266 -4.344875 0.233004 -1.363909 -8.066447 0.478302 2.535396 -4.825963 5.697076 -0.862768 -4.559995 72.069099 31.079386 -1.839780 11.105900 -5.221133 1.746710 -4.182828 -3.125978 -6.468520 -8.695333 3.386398 -11.438895 -69.759517 -22.248547 4.083429 -11.869695 -4.238407 6.329904 -1.147727 -7.558847 -26.899442 -3.770974 -4.578716 81.368307 -2.877273 -3.394258 -10.616180 -1.800176 -0.000000 -0.000000 -0.000000 9.782398 -20.772657 -1.438294 -5.947564 47.920620 -3.335017 15.521294 -36.125702 -2.486314 -0.000000 0.000000 0.000000
46.626199 88.398313 146.703591 12.924210 9.116568 0.580292 -1.673656 7.945429 -1.294725 -0.658383 -9.249451 -0.570678 -0.455049 2.293241 -0.491986 -0.151121 9.912351 -0.140216 -0.719160 -4.346324 0.221618 -1.353743 -8.069248 0.456820 2.529056 -4.794099 5.698720 -1.094123 -4.158236 72.186372 29.550176 -1.254087 10.923069 -5.488648 1.821469 -4.108178 -3.232748 -6.493884 -8.742475 3.207521 -12.073329 -69.696834 -23.314383 3.802584 -12.270762 -4.268506 6.279725 -1.152423 -7.720113 -27.684792 -3.773330 -4.394051 81.294157 -2.733390 -3.335120 -11.111975 -1.866817 -0.000000 0.000000 -0.000000 9.812203 -20.163436 -1.375827 -6.073708 47.566861 -3.295224 15.386390 -36.257335 -2.543468 -0.000000 -0.000000 -0.000000
46.759471 88.446888 147.418711 13.019487 9.125269 0.613960 -1.769400 7.902381 -1.271888 -0.707037 -9.283414 -0.556929 -0.488638 2.276686 -0.489299 -0.160544 9.914482 -0.139204 -0.710372 -4.340786 0.213029 -1.336854 -8.059064 0.440247 2.515605 -4.776873 5.714158 -1.419465 -3.784937 72.296506 27.974678 -0.564693 10.806878 -5.763088 1.939702 -4.009245 -3.332974 -6.523304 -8.762481 2.945664 -12.600289 -69.636714 -24.398033 3.402301 -12.615834 -4.316406 6.219493 -1.151156 -7.819897 -28.441517 -3.778003 -4.412691 81.116550 -2.754273 -3.306146 -11.574632 -1.918946 -0.000000 -0.000000 -0.000000 9.751844 -19.491676 -1.271018 -6.049328 47.073254 -3.200948 15.199574 -36.300867 -2.629127 -0.003374 0.069514 -0.013017
46.888561 88.525427 148.143237 13.107644 9.140292 0.645441 -1.866250 7.852177 -1.243399 -0.756836 -9.324044 -0.540459 -0.523012 2.257162 -0.484919 -0.170131 9.917380 -0.137708 -0.699290 -4.329006 0.205362 -1.315705 -8.037288 0.425179 2.494860 -4.774563 5.740360 -1.837314 -3.446173 72.402094 26.308750 0.272381 10.741838 -6.052007 2.108222 -3.889710 -3.430168 -6.556683 -8.759166 2.616560 -13.036542 -69.587682 -25.520073 2.870160 -12.915023 -4.377880 6.150253 -1.141040 -7.863420 -29.190366 -3.778243 -4.608697 80.830094 -2.916419 -3.307248 -12.006220 -1.949949 0.000000 -0.000000 -0.000000 9.617181 -18.754496 -1.129280 -5.897544 46.425805 -3.057071 14.962187 -36.296250 -2.732837 -0.012245 0.252713 -0.047692
47.013728 88.631266 148.877276 13.189078 9.160333 0.675910 -1.963686 7.795234 -1.210461 -0.807399 -9.370628 -0.521858 -0.557905 2.234895 -0.479207 -0.179824 9.920852 -0.135840 -0.686046 -4.311383 0.198306 -1.290533 -8.004669 0.411052 2.466543 -4.783748 5.775579 -2.332690 -3.133527 72.501591 24.576152 1.228144 10.698856 -6.351045 2.318394 -3.755838 -3.523172 -6.592292 -8.735572 2.233534 -13.393518 -69.546194 -26.676387 2.238848 -13.162960 -4.450533 6.074625 -1.124604 -7.858930 -29.927847 -3.775866 -4.936819 80.442499 -3.180306 -3.333923 -12.408441 -1.963221 0.000000 0.000000 -0.000000 9.423395 -17.961788 -0.957486 -5.642774 45.646343 -2.876997 14.679397 -36.234184 -2.857336 -0.024655 0.511607 -0.097369
47.135232 88.761742 149.620937 13.264184 9.184084 0.706539 -2.061185 7.731965 -1.174279 -0.858343 -9.422455 -0.501719 -0.593049 2.210110 -0.472526 -0.189563 9.924704 -0.133712 -0.670777 -4.288320 0.191549 -1.261575 -7.961952 0.397304 2.430373 -4.801009 5.818063 -2.890555 -2.838647 72.593618 22.799796 2.271578 10.652376 -6.655980 2.561143 -3.613252 -3.610829 -6.628411 -8.694750 1.809710 -13.682645 -69.508915 -27.863162 1.540798 -13.356873 -4.531950 5.995002 -1.104537 -7.814714 -30.650483 -3.772454 -5.350754 79.961446 -3.505278 -3.381488 -12.782960 -1.962244 0.000000 -0.000000 0.000000 9.185407 -17.123420 -0.762190 -5.308910 44.756703 -2.673477 14.356376 -36.105377 -3.005523 -0.038568 0.808242 -0.155199
47.253333 88.914192 150.374328 13.333354 9.210234 0.738492 -2.158222 7.662776 -1.136066 -0.909284 -9.478814 -0.480639 -0.628177 2.183035 -0.465238 -0.199290 9.928743 -0.131432 -0.653616 -4.260218 0.184781 -1.229065 -7.909886 0.383377 2.386066 -4.822935 5.866040 -3.495828 -2.553207 72.676919 21.001761 3.369734 10.580994 -6.962707 2.826977 -3.466809 -3.691983 -6.663333 -8.639762 1.358055 -13.915269 -69.472545 -29.076581 0.807988 -13.496593 -4.619680 5.913535 -1.083663 -7.739122 -31.354798 -3.769334 -5.807607 79.394694 -3.853963 -3.445074 -13.131417 -1.950513 -0.000000 -0.000000 0.000000 8.917797 -16.249308 -0.549518 -4.918814 43.778778 -2.458017 13.998195 -35.900562 -3.180348 -0.051931 1.104705 -0.214081
47.368292 89.085952 151.137556 13.396981 9.237467 0.772932 -2.254272 7.588072 -1.097038 -0.959835 -9.538998 -0.459219 -0.663020 2.153894 -0.457709 -0.208942 9.932777 -0.129108 -0.634696 -4.227481 0.177695 -1.193238 -7.849222 0.368718 2.333339 -4.846128 5.917716 -4.133396 -2.268873 72.750328 19.203521 4.487996 10.467904 -7.267215 3.106023 -3.320498 -3.765475 -6.695366 -8.573679 0.891408 -14.102599 -69.433690 -30.312534 0.071748 -13.584537 -4.711230 5.832113 -1.064921 -7.640583 -32.037314 -3.767563 -6.270435 78.750129 -4.194773 -3.519631 -13.455439 -1.931471 -0.000000 0.000000 -0.000000 8.634750 -15.349460 -0.325085 -4.494047 42.734535 -2.240512 13.609715 -35.610507 -3.384707 -0.062743 1.363130 -0.266621
47.480367 89.274358 151.910731 13.455456 9.264468 0.811017 -2.348803 7.508250 -1.058419 -1.009609 -9.602298 -0.438066 -0.697311 2.122913 -0.450303 -0.218458 9.936613 -0.126849 -0.614146 -4.190515 0.169986 -1.154322 -7.780712 0.352779 2.271910 -4.867199 5.971272 -4.788138 -1.977268 72.812749 17.426327 5.590455 10.301198 -7.565556 3.388084 -3.177376 -3.830138 -6.722837 -8.499582 0.422502 -14.255657 -69.388761 -31.566386 -0.637432 -13.625688 -4.804077 5.752369 -1.051351 -7.527631 -32.694547 -3.767927 -6.709102 78.035790 -4.502716 -3.599928 -13.756648 -1.908459 0.000000 -0.000000 0.000000 8.350044 -14.434001 -0.093945 -4.054793 41.646005 -2.029088 13.195465 -35.226025 -3.621350 -0.069160 1.545700 -0.305120
